HIERARCHY
ROOT Hips
{
  OFFSET 0.382225 96.6805 0.598322
  CHANNELS 6 Xposition Yposition Zposition Zrotation Xrotation Yrotation
  JOINT Spine
  {
    OFFSET 10.8089 -0.851416 0
    CHANNELS 3 Zrotation Xrotation Yrotation
    JOINT Spine1
    {
      OFFSET 18.8753 3.80116 0
      CHANNELS 3 Zrotation Xrotation Yrotation
      JOINT Spine2
      {
        OFFSET 13.4073 0.420477 0
        CHANNELS 3 Zrotation Xrotation Yrotation
        JOINT LeftShoulder
        {
          OFFSET 11.8837 -2.73209 -3.78198
          CHANNELS 3 Zrotation Xrotation Yrotation
          JOINT LeftArm
          {
            OFFSET 15.7849 0 -2.35849e-005
            CHANNELS 3 Zrotation Xrotation Yrotation
            JOINT LeftForeArm
            {
              OFFSET 30.3399 0 0
              CHANNELS 3 Zrotation Xrotation Yrotation
              JOINT LeftHand
              {
                OFFSET 26.9751 0 2.45913e-005
                CHANNELS 3 Zrotation Xrotation Yrotation
                End Site
                {
                  OFFSET 8 0 0
                }
              }
            }
          }
        }
        JOINT RightShoulder
        {
          OFFSET 11.8838 -2.7321 3.782
          CHANNELS 3 Zrotation Xrotation Yrotation
          JOINT RightArm
          {
            OFFSET -15.7848 0 -1.07056e-005
            CHANNELS 3 Zrotation Xrotation Yrotation
            JOINT RightForeArm
            {
              OFFSET -30.34 1.02096e-005 -2.53607e-005
              CHANNELS 3 Zrotation Xrotation Yrotation
              JOINT RightHand
              {
                OFFSET -26.9752 2.07668e-005 0
                CHANNELS 3 Zrotation Xrotation Yrotation
                End Site
                {
                  OFFSET -8 0 0
                }
              }
            }
          }
        }
        JOINT Neck
        {
          OFFSET 16.5588 -0.355318 0
          CHANNELS 3 Zrotation Xrotation Yrotation
          JOINT Head
          {
            OFFSET 9.28361 0.364157 0
            CHANNELS 3 Zrotation Xrotation Yrotation
            End Site
            {
              OFFSET 0 0 0
            }
          }
        }
      }
    }
  }
  JOINT LeftUpLeg
  {
    OFFSET -1.44883 -0.531424 -9.00581
    CHANNELS 3 Zrotation Xrotation Yrotation
    JOINT LeftLeg
    {
      OFFSET -42.572 0.0788889 -0.011964
      CHANNELS 3 Zrotation Xrotation Yrotation
      JOINT LeftFoot
      {
        OFFSET -40.1967 0 0
        CHANNELS 3 Zrotation Xrotation Yrotation
				JOINT LeftToe
        {
          OFFSET -10.4538 -16.5779 0.0801563
          CHANNELS 3 Zrotation Xrotation Yrotation
          End Site
          {
            OFFSET -1.0 -1.0 0.0
          }
        }
      }
    }
  }
  JOINT RightUpLeg
  {
    OFFSET -1.44865 -0.531427 9.0058
    CHANNELS 3 Zrotation Xrotation Yrotation
    JOINT RightLeg
    {
      OFFSET 42.5723 -3.24776e-005 0
      CHANNELS 3 Zrotation Xrotation Yrotation
      JOINT RightFoot
      {
        OFFSET 40.1968 0 -1.14003e-005
        CHANNELS 3 Zrotation Xrotation Yrotation
				JOINT RightToe
        {
          OFFSET 10.4538 16.5778 -0.0801573
          CHANNELS 3 Zrotation Xrotation Yrotation
          End Site
          {
            OFFSET -1.0 -1.0 0.0
          }
        }
      }
    }
  }
}
MOTION
Frames:	21
Frame Time:	0.0333333
63.7531 68.1335 111.162 -73.2434 16.237 165.29 -40.2771 12.2156 28.0407 17.7763 -0.192672 -0.351769 2.7794 1.93418e-006 1.65929e-005 -5.29496 18.9221 95.3702 -35.6054 25.3333 90.4265 -103.169 22.6442 -19.1947 125.722 -72.5045 136.519 -177.085 -3.39893 69.5171 -2.96438 -19.315 21.1483 -37.9655 -8.73825 -2.51111 -178.96 -6.24805 -163.998 -23.508 4.63459e-006 -5.90926e-006 36.0248 -32.8304 27.2485 82.4478 4.74501 -25.6402 -67.7919 -2.42323 -3.6271 -2.65167 -15.2236 16.2502 -90 0 0 -159.143 -23.6993 -51.2377 -64.6887 -1.22397 -5.26267 10.3961 11.2143 30.9533 -90 0 0
62.2945 68.8309 109.517 -74.2473 7.34519 169.627 -37.4812 8.36909 25.6675 18.2499 -0.218869 -0.395733 2.7794 1.93418e-006 1.65929e-005 -3.54573 17.7253 87.6084 -30.2963 18.9464 83.1769 -112.055 26.7686 -17.5753 48.8525 -74.5304 60.558 -177.285 -3.1113 72.583 3.76891 -22.693 31.1827 -29.1973 -8.36467 -1.80349 -177.942 -6.05941 -161.025 -23.508 4.63459e-006 -5.90926e-006 35.3498 -40.1513 14.6369 83.6191 3.76935 -21.6227 -65.5358 -2.65852 -3.5064 -4.52116 -19.6584 15.1264 -90 0 0 -164.617 -20.836 -44.2635 -69.0578 -0.666056 -5.56254 6.13806 20.2796 29.6608 -90 0 0
60.2452 69.7224 106.688 -75.7133 -4.33412 175.352 -35.9042 1.52583 21.4449 19.5853 -0.294735 -0.518508 2.7794 1.93418e-006 1.65929e-005 -1.72926 15.4861 77.9135 -16.4005 9.93343 73.6568 -113.164 27.2521 -17.3264 178.249 -66.6605 -169.452 -177.591 -1.65962 77.6508 16.9435 -18.922 47.4831 -31.8646 -8.49015 -2.01146 -163.556 -2.68922 -157.798 -23.508 4.63459e-006 -5.90926e-006 30.5767 -47.94 3.57779 83.2777 1.7641 -16.4904 -61.7912 -3.07012 -3.2805 -7.05969 -24.8886 14.3743 -90 0 0 -167.304 -14.9265 -32.4047 -74.3382 0.114633 -5.86151 4.59952 25.7446 20.4292 -90 0 0
57.7201 70.2517 103.94 -75.2413 -14.863 177.806 -32.2929 -3.33778 20.9637 18.083 -0.209601 -0.380259 2.7794 1.93418e-006 1.65929e-005 -1.01739 16.6583 74.9211 -14.3671 -6.07034 54.9334 -101.361 21.7562 -19.439 -179.331 -46.2983 -164.152 -177.986 1.76161 80.7371 21.7094 -4.77457 64.981 -40.7628 -8.83428 -2.74804 -151.582 -1.58117 -160.239 -23.508 4.63459e-006 -5.90926e-006 26.2001 -53.9204 -2.66253 83.4715 2.91912 -12.3922 -58.1049 -3.51944 -3.0287 -9.38641 -29.7017 14.9283 -90 0 0 -167.648 -6.9522 -25.0366 -78.299 0.828857 -6.04216 12.7783 26.296 10.5154 -90 0 0
55.2994 70.538 102.216 -76.5214 -19.2023 178.857 -31.9271 -0.41289 23.4307 17.7983 -0.19388 -0.353818 2.7794 1.93418e-006 1.65929e-005 -1.37084 15.3437 75.8526 -24.668 -9.50814 41.6695 -90.3174 16.069 -20.269 -172.926 -53.2767 -165.417 -179.571 7.19349 86.7526 -1.20056 5.04381 74.2601 -49.8449 -9.06543 -3.54472 -151.33 -11.3217 -160.749 -23.508 4.63459e-006 -5.90926e-006 19.9672 -60.8946 -3.68571 81.8157 3.19875 -12.1339 -57.0263 -3.71401 -2.94985 -9.88436 -31.707 16.2454 -90 0 0 -168.764 -0.354093 -21.231 -77.8964 0.911958 -6.03533 18.6726 31.7915 4.05076 -90 0 0
53.6478 70.4824 101.625 -80.0033 -18.804 -179.862 -33.4523 5.58764 24.585 17.1494 -0.158542 -0.293258 2.7794 1.93418e-006 1.65929e-005 -0.37099 15.1346 70.4324 -37.0332 -7.41404 57.1717 -95.3124 18.6889 -20.0366 -174.722 -49.3686 -165.625 179.747 6.12492 91.8874 -28.0632 -0.848022 80.5138 -59.4361 -9.17143 -4.41463 -156.714 -18.4542 -161.648 -23.508 4.63459e-006 -5.90926e-006 15.3238 -67.0195 -4.78173 78.8641 -0.334633 -13.5116 -59.1968 -3.54259 -3.10559 -8.1369 -31.1684 17.3484 -90 0 0 -170.443 7.08983 -21.0909 -75.1371 0.64405 -5.92405 23.7653 33.7896 -0.520602 -90 0 0
52.8089 70.134 101.819 -83.5433 -15.9094 179.533 -36.5713 12.6521 26.8627 17.5033 -0.177734 -0.326333 2.7794 1.93418e-006 1.65929e-005 -0.854459 15.5912 73.3248 -57.5093 -6.86725 71.38 -103.48 22.7955 -19.1497 173.821 -56.8783 -174.399 -179.287 1.43206 94.9639 -52.1922 -17.0086 72.8692 -66.7659 -9.1549 -5.08459 -165.95 -36.2284 -158.786 -23.508 4.63459e-006 -5.90926e-006 20.9314 -71.8645 1.41542 75.2124 -3.60133 -14.6389 -62.0065 -3.30896 -3.2901 -5.28366 -28.557 19.4596 -90 0 0 -169.245 14.6729 -27.279 -72.8615 0.398534 -5.81323 26.5053 31.9604 -1.12339 -90 0 0
52.8841 69.3967 102.133 -84.6587 -11.5774 178.616 -39.5256 19.3833 30.8553 19.2188 -0.273634 -0.484991 2.7794 1.93418e-006 1.65929e-005 -2.1033 14.8277 79.8069 -78.9517 -8.6469 85.8422 -105.837 23.9264 -18.7805 167.215 -63.1047 -179.246 -177.86 -3.70937 88.614 -73.3584 -35.8516 55.6333 -73.362 -9.068 -5.68131 -157.299 -76.6646 -141.712 -23.508 4.63459e-006 -5.90926e-006 30.6433 -73.7549 7.58174 73.4919 -5.9981 -15.851 -64.5039 -3.086 -3.43972 -2.71979 -24.5136 21.2792 -90 0 0 -163.515 17.6637 -34.0624 -72.8997 0.483233 -5.81206 28.215 30.6988 -2.56354 -90 0 0
53.2719 68.6287 102.382 -84.7267 -9.85395 177.382 -40.3401 24.3871 33.3929 20.0236 -0.320262 -0.55843 2.7794 1.93418e-006 1.65929e-005 -2.69586 8.9654 83.5054 -79.0544 -3.29906 90.0608 -103.889 22.9937 -19.0891 139.703 -60.5459 156.174 -177.436 -3.02278 74.8543 -86.9247 -51.0829 41.9539 -80.796 -8.88962 -6.33674 -46.0486 -77.4824 -27.5937 -23.508 4.63459e-006 -5.90926e-006 37.7061 -76.1456 13.9556 73.0017 -8.11741 -14.0815 -66.1928 -2.87344 -3.53544 -1.03446 -19.5821 21.047 -90 0 0 -159.204 18.8007 -38.93 -73.3467 0.597997 -5.83324 29.8038 29.9334 -3.59316 -90 0 0
52.8416 68.7791 102.217 -85.0148 -8.48422 177.164 -34.2415 23.5168 30.6569 19.6668 -0.299442 -0.525951 2.7794 1.93418e-006 1.65929e-005 -2.66652 10.8573 83.2795 -65.5617 7.13657 93.6784 -105.18 23.6141 -18.8883 150.222 -60.0264 165.386 -177.294 -0.66867 74.7148 -79.8293 -51.6835 51.7712 -91.1153 -8.50609 -7.19677 -61.626 -78.83 -41.9212 -23.508 4.63459e-006 -5.90926e-006 26.7072 -75 6.12493 71.6616 -9.59618 -13.8008 -66.7547 -2.77202 -3.56649 -0.641402 -16.0959 20.1336 -90 0 0 -162.12 16.8924 -37.046 -72.066 0.363116 -5.7669 31.5217 30.5193 -1.5536 -90 0 0
52.959 69.6354 102.398 -89.2568 -1.58168 177.794 -32.3176 21.0497 25.7463 18.552 -0.235797 -0.423662 2.7794 1.93418e-006 1.65929e-005 -2.97707 19.2409 84.518 -48.0091 19.9445 95.0256 -106.685 24.3267 -18.6356 161.01 -44.9184 179.518 -177.546 1.33644 77.3382 -62.2769 -37.1122 68.4453 -102.45 -7.91588 -8.04484 -57.9941 -81.0964 -38.8204 -23.508 4.63459e-006 -5.90926e-006 26.9194 -74.145 3.15776 64.262 -10.2345 -18.4544 -67.0416 -2.68961 -3.57901 0.31664 -12.2009 19.6031 -90 0 0 -168.537 9.91125 -33.1584 -70.107 0.00867796 -5.6534 31.7545 30.8107 0.644847 -90 0 0
53.8016 71.2355 103.257 -92.1202 8.04648 178.662 -31.0578 21.1023 20.5877 16.8697 -0.143536 -0.267026 2.7794 1.93418e-006 1.65929e-005 -5.07398 25.3809 90.1713 -23.4012 31.8197 84.5788 -103.32 22.7178 -19.1729 169.438 -33.6062 -173.173 -178.152 6.54037 80.0054 -50.2276 -13.1675 65.9888 -106.264 -7.68116 -8.30184 -31.8259 -82.2759 -17.1514 -23.508 4.63459e-006 -5.90926e-006 40.7449 -73.3804 13.613 56.5813 -8.77389 -23.7747 -66.0707 -2.70042 -3.52446 1.19984 -6.68645 18.4257 -90 0 0 -168.415 5.29693 -34.4132 -66.052 -0.630644 -5.38316 30.409 26.2591 3.42872 -90 0 0
54.7942 73.6364 104.749 -91.7516 18.6793 178.409 -28.9796 21.326 15.2961 17.0799 -0.154786 -0.286752 2.7794 1.93418e-006 1.65929e-005 -6.3027 29.249 91.8953 -3.28704 35.4655 71.7513 -90.862 16.3573 -20.2553 171.142 -34.849 -173.305 -178.235 9.25898 79.6076 -34.3642 8.86934 53.8344 -108.672 -7.52422 -8.45573 8.32046 -86.532 19.8483 -23.508 4.63459e-006 -5.90926e-006 47.9101 -63.7184 17.442 50.8668 -5.3286 -27.5616 -63.3935 -2.86733 -3.37273 1.70682 0.620217 16.8495 -90 0 0 -163.226 2.56134 -38.9069 -59.0029 -1.78313 -4.81176 25.0493 15.9412 13.699 -90 0 0
55.1949 77.0555 105.556 -88.9666 31.1859 175.33 -25.5226 17.688 10.6651 17.0542 -0.153415 -0.284333 2.7794 1.93418e-006 1.65929e-005 -5.36379 27.1182 90.2876 17.3111 38.6897 56.1594 -76.7133 8.78479 -19.6877 172.17 -28.1533 -172.333 -176.384 9.77289 72.6386 -29.1615 14.4835 55.0185 -114.994 -7.08296 -8.82707 49.7706 -84.7804 63.0399 -23.508 4.63459e-006 -5.90926e-006 44.6516 -45.9537 9.84224 45.4935 2.90245 -31.3176 -57.5344 -3.34905 -2.98744 1.91528 7.19862 14.692 -90 0 0 -157.157 -2.10485 -40.6331 -50.2766 -2.91125 -3.94211 19.4583 5.19529 14.9222 -90 0 0
54.9669 81.4488 105.089 -83.9749 48.7395 170.108 -22.3658 11.9505 6.45556 17.2567 -0.164339 -0.303295 2.7794 1.93418e-006 1.65929e-005 -4.39111 26.8802 87.6087 29.9723 35.8738 39.8596 -53.974 -2.44215 -15.0101 167.835 -26.4479 -174.681 -175.525 12.9665 70.4576 -46.0394 5.94712 60.0001 -123.196 -6.45367 -9.23194 113.199 -83.7188 129.209 -23.508 4.63459e-006 -5.90926e-006 39.1757 -23.7706 2.34365 41.0072 20.5835 -39.7051 -47.6095 -4.17707 -2.18158 3.34958 5.16458 12.5455 -90 0 0 -148.368 -7.57324 -38.405 -40.3155 -4.01168 -2.77125 8.29368 -10.7612 16.4277 -90 0 0
54.7453 85.5364 103.863 -71.8391 67.179 159.282 -20.0433 9.0253 0.76458 16.86 -0.143004 -0.26612 2.7794 1.93418e-006 1.65929e-005 -3.14345 25.4886 84.2485 28.9675 33.1779 27.9439 -26.2189 -11.8154 -4.60398 169.694 -25.9169 -173.27 -177.043 16.147 74.8929 -60.5451 -2.68471 56.1657 -127.942 -6.06469 -9.42348 138.471 -82.2438 154.315 -23.508 4.63459e-006 -5.90926e-006 35.9789 -1.79546 -0.186107 40.9841 41.1297 -51.2417 -35.3616 -5.12035 -0.965445 5.95843 -14.812 16.3656 -90 0 0 -137.508 -6.08983 -30.3293 -28.6665 -4.94833 -1.29204 -11.862 -25.6514 11.5162 -90 0 0
55.3903 88.2278 102.876 -46.0509 77.1099 134.213 -20.3677 0.817337 -3.49112 18.028 -0.206561 -0.375175 2.7794 1.93418e-006 1.65929e-005 -1.39834 22.3581 78.5963 21.2159 39.6943 17.9498 -10.8557 -14.3913 2.437 169.565 -24.8165 -174.613 -179.521 16.4482 81.5932 -61.4691 -12.0701 53.4359 -123.786 -6.40072 -9.25405 131.414 -88.9012 149.143 -23.508 4.63459e-006 -5.90926e-006 33.094 11.0785 -5.20429 30.4989 46.3387 -45.4409 -30.0823 -5.4102 -0.538393 6.85152 -20.3213 20.2004 -90 0 0 -130.332 -0.135918 -24.1845 -24.0714 -5.2531 -0.748245 -24.0369 -22.4683 10.7779 -90 0 0
56.5819 89.4378 101.967 -29.5821 80.7518 114.929 -21.3671 -9.79744 -1.15451 18.2386 -0.218246 -0.394691 2.7794 1.93418e-006 1.65929e-005 0.651833 17.0142 67.7893 -0.0890501 48.4044 14.0118 -10.7063 -14.4068 2.50796 168.636 -37.7575 -178.089 178.359 17.2084 87.1135 -54.3379 -18.9699 56.2793 -119.424 -6.7523 -9.05807 11.576 -79.974 28.0326 -23.508 4.63459e-006 -5.90926e-006 30.5443 10.9562 -13.6258 15.0926 40.5885 -30.1165 -33.1497 -5.2363 -0.783055 7.44124 -16.991 21.3157 -90 0 0 -132.526 -6.49021 -21.5512 -28.8485 -4.97116 -1.375 -20.0906 -18.5479 8.11296 -90 0 0
57.6157 90.1086 100.326 -38.8514 81.136 121.989 -19.0831 -16.3513 1.91789 19.9449 -0.315642 -0.551272 2.7794 1.93418e-006 1.65929e-005 -3.30793 2.94277 62.2703 -24.2584 41.0678 11.3247 -7.01408 -14.7346 4.26845 169.943 -37.9296 176.111 178.74 15.9078 86.81 -35.2402 -12.6492 65.1279 -118.802 -6.79802 -9.02627 1.13497 -85.1389 16.0399 -23.508 4.63459e-006 -5.90926e-006 25.4134 13.6629 -18.3673 10.0469 36.5938 -23.266 -34.3135 -5.14371 -0.902901 6.77516 -12.9251 19.6106 -90 0 0 -136.272 -4.46224 -23.5562 -27.8485 -5.02871 -1.20286 -13.6292 -14.3849 7.05571 -90 0 0
58.7721 90.651 98.7901 -58.0764 77.4139 142.1 -18.0454 -22.9082 -0.337043 23.6991 -0.54614 -0.885225 2.7794 1.93418e-006 1.65929e-005 -7.54834 -10.6257 67.7279 -46.7423 11.53 7.49564 -1.92806 -15.004 6.71529 174.406 -52.6863 163.812 -178.921 9.29589 82.3827 -11.1654 5.181 66.5947 -121.477 -6.59021 -9.15461 144.41 -86.4433 157.946 -23.508 4.63459e-006 -5.90926e-006 24.1767 28.0513 -15.13 16.0995 40.0895 -28.1947 -32.0862 -5.24155 -0.691605 6.11809 -15.7359 17.0477 -90 0 0 -138.15 2.12865 -25.2231 -27.2061 -5.02985 -1.09286 -9.25059 -12.5447 3.90621 -90 0 0
59.4753 91.1748 97.3794 -60.1735 74.0687 146.499 -19.1559 -28.0756 -4.69015 24.8762 -0.622871 -0.986776 2.7794 1.93418e-006 1.65929e-005 -5.78897 -17.2011 77.9729 -75.2122 -18.3866 10.9252 -3.96134 -14.9215 5.73478 -160.49 -67.2375 -173.054 -178.086 7.86803 79.3423 5.32734 15.301 53.1763 -122.315 -6.52389 -9.19279 118.338 -86.0468 132.974 -23.508 4.63459e-006 -5.90926e-006 29.6114 41.6441 -6.50727 26.9139 47.2827 -37.3912 -27.4391 -5.51301 -0.355813 2.90455 -20.8537 18.2822 -90 0 0 -137.623 6.36331 -24.9566 -27.6543 -4.98556 -1.14922 -8.46668 -12.3071 3.59939 -90 0 0
